HIERARCHY
ROOT Hips
{
	OFFSET 0.000000 0.000000 0.000000 
	CHANNELS 6 Xposition Yposition Zposition Yrotation Zrotation Xrotation 
	JOINT Lumbar
	{
		OFFSET 0.000000 0.000000 0.000000 
		CHANNELS 3 Zrotation Xrotation Yrotation
		JOINT Neck
		{
			OFFSET 0.000000 0.445665 0.000000 
			CHANNELS 3 Zrotation Xrotation Yrotation
			End Site
			{
				OFFSET 0.000000 0.227535 0.000000 
			}
		}
		JOINT RightShoulder
		{
			OFFSET 0.019635 0.377685 0.194865 
			CHANNELS 3 Zrotation Xrotation Yrotation
			JOINT RightElbow
			{
				OFFSET 0.000000 -0.243375 0.000000 
				CHANNELS 2 Zrotation Yrotation
				JOINT RightWrist
				{
					OFFSET 0.000000 -0.264825 0.000000 
					CHANNELS 2 Zrotation Xrotation
					End Site
					{
						OFFSET 0.006600 -0.176220 0.000990 
					}
				}
			}
		}
		JOINT LeftShoulder
		{
			OFFSET 0.019635 0.377685 -0.194865 
			CHANNELS 3 Zrotation Xrotation Yrotation
			JOINT LeftElbow
			{
				OFFSET 0.000000 -0.243375 0.000000 
				CHANNELS 2 Zrotation Yrotation
				JOINT LeftWrist
				{
					OFFSET 0.000000 -0.264825 0.000000 
					CHANNELS 2 Zrotation Xrotation
					End Site
					{
						OFFSET 0.006600 -0.176220 -0.000990 
					}
				}
			}
		}
	}
	JOINT RightHip
	{
		OFFSET 0.052140 -0.069960 0.075570 
		CHANNELS 3 Zrotation Xrotation Yrotation
		JOINT RightKnee
		{
			OFFSET 0.000000 -0.402270 0.000000 
			CHANNELS 1 Zrotation
			JOINT RightAnkle
			{
				OFFSET 0.000000 -0.404085 0.000000 
				CHANNELS 3 Zrotation Xrotation Yrotation
				End Site
				{
					OFFSET 0.204105 -0.089430 0.008415 
				}
			}
		}
	}
	JOINT LeftHip
	{
		OFFSET 0.052140 -0.069960 -0.075570 
		CHANNELS 3 Zrotation Xrotation Yrotation
		JOINT LeftKnee
		{
			OFFSET 0.000000 -0.402270 0.000000 
			CHANNELS 1 Zrotation
			JOINT LeftAnkle
			{
				OFFSET 0.000000 -0.404085 0.000000 
				CHANNELS 3 Zrotation Xrotation Yrotation
				End Site
				{
					OFFSET 0.204105 -0.089430 -0.008415 
				}
			}
		}
	}
}
MOTION
Frames: 27
Frame Time: 0.02
0.22968 0.08845 -1.51847 1251.89617 -47.78788 -11.09029 44.25483 5.64936 -3.47525 5.29799 0.59347 -2.11994 16.9267 7.10931 2.4322 134.3012 33.28462 24.96825 -13.37333 -16.27056 3.87454 -19.54659 124.60132 -109.34415 15.37812 -3.07963 44.45893 8.16382 -22.10609 -21.52078 -6.89232 -0.48241 -2.50078 59.85544 16.93151 -3.67483 -73.00705 -8.43609 1.92436 3.2593
0.21808 0.08687 -1.52195 1253.14011 -47.78217 -10.15818 43.87912 5.48026 -2.66513 5.19304 0.05018 -2.11994 16.59366 6.74342 2.64894 134.3012 33.23538 24.96516 -13.58294 -16.62242 4.43299 -19.60569 124.52656 -105.90283 14.05479 -2.54633 43.22403 8.07946 -21.79399 -20.90179 -6.80181 -0.56783 -2.53685 61.69766 16.25083 -1.64425 -70.8954 -8.32887 2.02091 3.30062
0.20627 0.08478 -1.52506 1254.35973 -47.81014 -9.24528 43.58106 5.29621 -1.95054 5.02622 -0.5079 -2.11994 16.40787 6.33251 2.74962 134.3012 33.19635 24.94917 -13.74098 -17.0529 5.11822 -19.65009 124.43744 -101.91929 12.49747 -1.92762 42.09594 7.96308 -21.48294 -20.41277 -6.70652 -0.65817 -2.57485 63.21522 15.57904 0.57049 -67.6567 -8.24008 2.08575 3.32708
0.19451 0.08286 -1.52833 1255.57144 -47.8237 -8.33589 43.25137 5.12207 -1.19187 4.89083 -1.0579 -2.11994 16.16023 5.94859 2.90725 134.3012 33.13214 24.94235 -13.90999 -17.45186 5.71759 -19.6954 124.36036 -98.27573 11.07609 -1.36267 40.91933 7.86659 -21.17585 -19.86738 -6.61387 -0.74524 -2.61154 64.85174 14.90117 2.68572 -64.87963 -8.14822 2.15874 3.35758
0.18297 0.0812 -1.53161 1256.86348 -47.83552 -7.37111 42.90545 4.9332 -0.43129 4.74054 -1.61595 -2.11994 15.88487 5.53323 3.05382 134.3012 33.15114 24.92403 -14.13158 -17.84007 6.44272 -19.76532 124.26019 -94.19782 9.51445 -0.7284 39.74987 7.74424 -20.84782 -19.31359 -6.51929 -0.83691 -2.6502 66.60615 14.22802 4.88518 -62.269 -8.03397 2.25691 3.39896
0.17091 0.07886 -1.53479 1257.9809 -47.85864 -6.52833 42.6132 4.77159 0.30044 4.60685 -2.15955 -2.11994 15.70357 5.17447 3.19346 134.3012 33.00383 24.92538 -14.23229 -18.26619 6.93118 -19.77904 124.20441 -90.92248 8.20038 -0.22275 38.58757 7.66964 -20.56228 -18.80622 -6.42765 -0.92012 -2.68519 68.04132 13.55059 6.94184 -59.07275 -7.96988 2.29582 3.41444
0.15756 0.07481 -1.53783 1258.63969 -47.89932 -6.00989 42.43672 4.69466 0.97998 4.53554 -2.66318 -2.11994 15.76021 4.97874 3.33983 134.30122 32.3547 24.98727 -14.00079 -18.78231 6.76526 -19.65907 124.27703 -89.84839 7.56228 -0.06579 37.42563 7.73158 -20.42215 -18.40525 -6.34448 -0.978 -2.70923 68.64394 12.83503 8.61233 -54.40596 -8.05044 2.17638 3.36141
0.14366 0.07006 -1.54079 1259.12063 -47.95101 -5.61534 42.31431 4.64485 1.63215 4.48321 -3.15073 -2.11994 15.90551 4.84247 3.48236 134.30124 31.54527 25.06824 -13.65117 -19.33141 6.35178 -19.48079 124.39405 -89.62779 7.19342 -0.04596 36.26509 7.84339 -20.32073 -18.04452 -6.26463 -1.02722 -2.72953 68.94133 12.11952 10.12056 -49.21978 -8.1791 1.99922 3.28314
0.12993 0.06559 -1.54376 1259.67147 -48.00065 -5.16977 42.17548 4.57919 2.29382 4.42107 -3.64312 -2.11994 16.00106 4.68273 3.6278 134.30126 30.83555 25.1385 -13.36293 -19.86236 6.02979 -19.31653 124.48969 -89.12229 6.74707 0.01706 35.09847 7.93528 -20.18291 -17.65827 -6.1837 -1.08097 -2.75178 69.39954 11.42018 11.66704 -44.35859 -8.27874 1.84997 3.21678
0.11652 0.06129 -1.54683 1260.26698 -48.03839 -4.70295 42.00369 4.52804 2.96563 4.3607 -4.14676 -2.11994 16.13871 4.50779 3.7659 134.30129 30.01296 25.21808 -13.04108 -20.41231 5.79616 -19.20079 124.59136 -88.17986 6.10895 0.16025 33.95835 8.0157 -20.12195 -17.30639 -6.10052 -1.13269 -2.77316 69.75662 10.65311 13.37202 -39.07378 -8.40875 1.69162 3.14759
0.10232 0.05646 -1.54968 1260.72828 -48.10387 -4.30905 41.91396 4.4531 3.60982 4.30329 -4.62259 -2.11994 16.21138 4.37745 3.91796 134.3013 29.38702 25.28153 -12.761 -20.92599 5.32415 -18.97491 124.6894 -88.33572 5.92978 0.10734 32.76234 8.13066 -19.91324 -16.89168 -6.02324 -1.18615 -2.7953 70.25166 10.02658 14.70339 -34.57298 -8.48731 1.54006 3.07906
0.08622 0.05032 -1.55203 1260.85592 -48.23634 -4.09021 42.02424 4.30737 4.19561 4.23822 -5.02837 -2.11994 16.05282 4.37091 4.12601 134.30128 29.34783 25.30702 -12.63284 -21.36039 4.20168 -18.4203 124.78173 -91.50255 7.0177 -0.4933 31.40902 8.34192 -19.2598 -16.28809 -5.95859 -1.2495 -2.82173 71.24072 9.79154 15.06264 -32.28465 -8.40671 1.41176 3.01362
0.06931 0.04366 -1.55416 1260.85599 -48.3975 -3.93927 42.21768 4.13641 4.75319 4.17783 -5.40606 -2.11994 15.83106 4.40438 4.34571 134.30126 29.51286 25.31304 -12.54983 -21.75121 2.85754 -17.76443 124.866 -95.71091 8.54674 -1.27928 30.00043 8.58323 -18.46115 -15.62227 -5.90043 -1.31434 -2.84883 72.37297 9.6969 15.04705 -30.82412 -8.27363 1.29412 2.95064
0.05268 0.03723 -1.55634 1260.91889 -48.54982 -3.75496 42.38097 3.97623 5.31649 4.12302 -5.79474 -2.11994 15.65684 4.41008 4.54982 134.30124 29.57928 25.32132 -12.44106 -22.14277 1.64826 -17.1802 124.94425 -99.32536 9.83254 -1.95516 28.6169 8.80322 -17.74721 -14.98536 -5.84107 -1.37648 -2.87473 73.41694 9.53619 15.18881 -29.04225 -8.16788 1.17823 2.8899
0.03643 0.03082 -1.55874 1260.95505 -48.68462 -3.5871 42.51253 3.82046 5.90767 4.03653 -6.19056 -2.11994 15.40498 4.4592 4.79721 134.30122 29.65776 25.36024 -12.34932 -22.61657 0.28447 -16.48484 125.0654 -103.4873 11.30989 -2.74625 27.22922 9.06014 -16.95673 -14.339 -5.77402 -1.44674 -2.90419 74.55068 9.38657 15.37899 -27.00896 -8.04885 1.03301 2.81434
0.01918 0.02425 -1.56062 1261.01896 -48.86282 -3.39763 42.73099 3.64845 6.4358 4.01663 -6.5648 -2.11994 15.30039 4.42545 4.95726 134.3012 29.77028 25.32776 -12.23555 -22.90758 -0.80456 -15.99881 125.09412 -106.7339 12.48736 -3.33806 25.84272 9.24307 -16.28924 -13.7074 -5.725 -1.50068 -2.92654 75.53216 9.24529 15.38254 -25.70402 -7.94472 0.9515 2.77025
-0.00045 0.0173 -1.56122 1261.19129 -49.15071 -3.14737 43.15246 3.4439 6.78461 4.18149 -6.88828 -2.11994 15.60356 4.16333 4.87446 134.3012 29.85759 25.12318 -12.04062 -22.71029 -1.10258 -16.10469 124.87574 -107.30243 12.7476 -3.3496 24.42714 9.24486 -16.00781 -13.04815 -5.72037 -1.50833 -2.92832 76.08574 9.10963 14.95504 -26.20176 -7.89132 1.04898 2.81507
-0.02109 0.01023 -1.56128 1261.39685 -49.48111 -2.86966 43.66054 3.22269 7.07283 4.41257 -7.19068 -2.11994 16.06008 3.81456 4.70381 134.3012 29.98806 24.84168 -11.8243 -22.32947 -1.11308 -16.42609 124.5642 -106.89819 12.68681 -3.15259 23.02539 9.1654 -15.85201 -12.42518 -5.73472 -1.49983 -2.92315 76.47593 8.9748 14.35641 -27.40681 -7.85488 1.20926 2.89099
-0.04139 0.00327 -1.56153 1261.58757 -49.79492 -2.59355 44.14061 3.00485 7.39757 4.61215 -7.50157 -2.11994 16.45439 3.49803 4.57183 134.3012 30.14217 24.58438 -11.62453 -22.02844 -1.23706 -16.65752 124.28986 -106.8564 12.7583 -3.03781 21.64459 9.10263 -15.63253 -11.83529 -5.74238 -1.49916 -2.92157 76.92649 8.82787 13.83977 -28.29603 -7.81278 1.33762 2.95118
-0.06123 -0.00398 -1.56202 1261.77212 -50.10106 -2.36523 44.57903 2.80352 7.68557 4.81858 -7.81627 -2.11994 16.81189 3.21171 4.44292 134.3012 30.11163 24.37946 -11.39752 -21.7404 -1.43337 -16.85574 124.03309 -107.15457 12.89943 -2.97452 20.13793 9.12556 -15.4396 -11.01805 -5.74057 -1.49595 -2.91789 77.44719 8.73343 13.28562 -29.1942 -7.76103 1.48138 3.01858
-0.08224 -0.01063 -1.56187 1261.97974 -50.4293 -2.03069 45.11953 2.56464 8.03333 5.02548 -8.11814 -2.11994 17.28717 2.84305 4.28987 134.3012 30.48464 24.03785 -11.22145 -21.38327 -1.418 -17.17059 123.72254 -106.5415 12.81776 -2.76209 18.90865 8.95133 -15.21836 -10.70378 -5.76483 -1.49482 -2.9173 77.77273 8.53043 12.78205 -30.22584 -7.73311 1.60684 3.07782
-0.10636 -0.01573 -1.56007 1262.23789 -50.83891 -1.40363 45.9552 2.22282 8.58344 5.22562 -8.3916 -2.11994 18.01389 2.25426 4.06309 134.30121 31.85753 23.42458 -11.19382 -20.87167 -0.797 -17.79875 123.24424 -103.27455 12.15846 -2.09861 18.34708 8.24402 -14.93148 -11.59628 -5.83893 -1.49809 -2.92368 77.67111 8.00622 12.38927 -31.49354 -7.77551 1.67526 3.11147
-0.1316 -0.02021 -1.55764 1262.51931 -51.26347 -0.67218 46.88334 1.84499 9.19102 5.42262 -8.65242 -2.11994 18.85863 1.5887 3.81989 134.30121 33.64882 22.66393 -11.21829 -20.29851 0.01297 -18.52922 122.72253 -99.18002 11.29029 -1.30612 18.08258 7.3431 -14.60594 -13.02434 -5.94116 -1.50508 -2.93402 77.36474 7.376 12.0666 -32.85898 -7.84001 1.72161 3.13509
-0.15627 -0.02489 -1.55551 1262.79458 -51.66079 0.00898 47.74662 1.48537 9.75851 5.61538 -8.91826 -2.11994 19.67632 0.96635 3.60344 134.30121 35.32152 21.90913 -11.21605 -19.75961 0.67535 -19.18445 122.24884 -95.71664 10.54375 -0.63349 17.74406 6.53551 -14.26851 -14.32365 -6.04282 -1.51371 -2.94467 77.10424 6.80754 11.76243 -34.1496 -7.88888 1.77194 3.1602
-0.18126 -0.02993 -1.55331 1263.05393 -52.14568 0.70643 48.71106 1.11545 10.38565 5.83342 -9.18739 -2.11994 20.39644 0.303 3.30431 134.30122 36.71271 21.39459 -11.22273 -19.18849 1.60084 -19.96826 121.65411 -91.17971 9.67812 0.29653 17.14686 5.70022 -14.05347 -15.14846 -6.0964 -1.50732 -2.94611 77.0369 6.18181 11.24684 -35.59583 -7.9616 1.84912 3.19894
-0.2058 -0.03407 -1.55111 1263.34945 -52.45149 1.39018 49.48355 0.76104 10.8995 5.99841 -9.44573 -2.11994 21.33406 -0.28847 3.1724 134.30122 38.76526 20.36458 -11.22743 -18.67134 2.02864 -20.50607 121.30031 -88.64907 9.00933 0.72874 17.16092 4.88062 -13.58056 -17.07793 -6.25303 -1.53379 -2.96786 76.52122 5.65024 11.18123 -36.72922 -7.99004 1.86543 3.20703
-0.22905 -0.03589 -1.54906 1263.75795 -52.25607 2.04621 49.72059 0.43807 11.11569 6.00662 -9.68768 -2.11994 22.94301 -0.69346 3.52554 134.30123 42.73938 17.78618 -11.17817 -18.32762 0.95625 -20.33637 121.64094 -92.26491 8.98689 -0.33632 18.77313 4.12725 -12.33794 -22.01143 -6.71752 -1.64577 -3.04379 74.81406 5.40457 12.42254 -36.99238 -7.88755 1.70915 3.12804
